<svg width="48" height="48" viewBox="0 0 48 48" fill="none" xmlns="http://www.w3.org/2000/svg">
<g clip-path="url(#clip0_293_9)">
<path d="M20.9679 31.4288C21.0883 31.4381 21.2134 31.4427 21.3385 31.4427C21.4636 31.4427 21.5794 31.4381 21.6998 31.4288H20.9679ZM22.9044 34.1937C22.8071 34.2076 22.7144 34.2215 22.6171 34.2354L22.9044 34.1937ZM20.9679 31.4288C21.0883 31.4381 21.2134 31.4427 21.3385 31.4427C21.4636 31.4427 21.5794 31.4381 21.6998 31.4288H20.9679ZM37.0945 23.1941L36.293 25.746L37.1084 23.1941H37.0945ZM37.0945 23.1941L36.293 25.746L37.1084 23.1941H37.0945ZM20.9679 31.4288C21.0883 31.4381 21.2134 31.4427 21.3385 31.4427C21.4636 31.4427 21.5794 31.4381 21.6998 31.4288H20.9679ZM10.4283 21.2165C10.016 20.2208 9.39523 19.4427 8.57523 18.8869C7.74597 18.3358 6.7175 18.0486 5.48055 18.0347C4.23434 18.0255 3.20587 18.2941 2.3905 18.8499C1.56587 19.4103 0.954348 20.1883 0.5374 21.198C0.291864 21.8047 0.115819 22.4809 0.0138983 23.2173C0.00463276 23.4767 0 23.736 0 24C0 25.1393 0.0787569 26.2555 0.231638 27.3531C0.236271 27.367 0.236271 27.3763 0.240903 27.3902C0.324293 27.6912 0.421581 27.9738 0.532767 28.247C0.838529 28.9927 1.26011 29.6133 1.79751 30.1088C1.97819 30.2756 2.17276 30.4284 2.38124 30.572C2.7148 30.7989 3.08542 30.9795 3.48383 31.1139C4.07219 31.313 4.73931 31.4195 5.48055 31.4288C6.26812 31.4381 6.9723 31.3269 7.59309 31.1046C7.94518 30.9749 8.27411 30.8128 8.57523 30.6137C8.91343 30.3867 9.21455 30.1181 9.47862 29.8124C9.86777 29.3771 10.1828 28.863 10.4283 28.2655C10.5905 27.8719 10.7202 27.455 10.8221 27.0104C10.975 26.3157 11.0491 25.5562 11.0491 24.7318C11.0491 23.384 10.8453 22.2123 10.4283 21.2165ZM20.9679 31.4288C21.0883 31.4381 21.2134 31.4427 21.3385 31.4427C21.4636 31.4427 21.5794 31.4381 21.6998 31.4288H20.9679ZM39.0402 27.0197L36.9694 33.5963H33.4068L31.3313 27.0197L28.5424 18.1829L27.5881 15.1494H30.6781L30.8681 15.7283L35.0468 28.7565L35.1858 29.1872L35.3248 28.7565L36.293 25.746L37.0945 23.1941H48C47.9398 21.4805 47.7081 19.8086 47.3051 18.1968H38.7021L39.6703 15.1216H46.3137C42.7835 6.26168 34.1295 0 24.0069 0C13.8844 0 4.66519 6.67387 1.3713 15.9923C2.55265 15.4134 3.91931 15.1262 5.48055 15.1262C7.32439 15.1262 8.90879 15.5291 10.2245 16.335C11.5448 17.1455 12.5548 18.2663 13.259 19.7113C13.574 20.3551 13.8241 21.0498 13.9956 21.7908C14.0002 21.8047 14.0048 21.8186 14.0048 21.8325C14.0095 21.8557 14.0187 21.8834 14.0234 21.9112C14.028 21.939 14.0326 21.9622 14.0373 21.99C14.2272 22.8421 14.3152 23.7545 14.3152 24.7318C14.3152 26.6353 13.9631 28.3072 13.259 29.7522C13.1617 29.956 13.0551 30.1552 12.9393 30.3497C12.7169 30.7341 12.4667 31.0953 12.1842 31.4288C11.8784 31.8086 11.5356 32.1513 11.1603 32.457C10.8684 32.7071 10.5534 32.9247 10.2245 33.1239C9.28868 33.6982 8.22314 34.0687 7.02326 34.2354C6.53219 34.3003 6.01795 34.3373 5.48055 34.3373C4.22044 34.3373 3.08542 34.1474 2.07084 33.7677C5.81411 42.1552 14.2272 48 24.0069 48C36.5015 48 46.7631 38.4639 47.9027 26.2648H39.2812L39.0402 27.0197ZM28.5193 31.1046C28.371 31.3825 28.195 31.6372 28.0004 31.8827C27.6946 32.2717 27.3286 32.6098 26.9117 32.9016C25.9851 33.5592 25.1142 33.8325 24.6046 33.9761C24.5999 33.9807 24.5907 33.9807 24.5907 33.9807C23.9745 34.1567 23.3352 34.2354 22.7005 34.2354H12.2861C12.9764 33.7584 13.6018 33.1934 14.1392 32.5542C14.3199 32.3366 14.4913 32.1189 14.6534 31.8873C14.7553 31.7391 14.8573 31.5863 14.9592 31.4288H20.9679C21.0883 31.4381 21.2134 31.4427 21.3385 31.4427C21.4636 31.4427 21.5794 31.4381 21.6998 31.4288C21.8203 31.4381 21.9454 31.4427 22.0705 31.4427C22.1955 31.4427 22.3253 31.4381 22.4503 31.4288C22.9692 31.401 23.4603 31.2991 23.9282 31.137C24.5073 30.9332 24.9798 30.6322 25.3412 30.2385C25.7072 29.8448 25.8832 29.3632 25.8832 28.7889C25.8832 28.5712 25.8554 28.3582 25.7906 28.1636C25.7813 28.1359 25.772 28.1081 25.7628 28.0803C25.6747 27.8626 25.545 27.6727 25.3829 27.5014C25.2161 27.3254 24.9984 27.1679 24.7436 27.0289C24.4795 26.89 24.1784 26.7696 23.8402 26.6677L19.0684 25.2505C18.6607 25.1393 18.2206 24.9819 17.7481 24.7781C17.3821 24.6206 17.03 24.4261 16.6965 24.176C16.5992 24.1019 16.4972 24.0232 16.4 23.9444C15.9784 23.5878 15.6309 23.1339 15.3622 22.5828C15.2649 22.379 15.1815 22.1521 15.1167 21.9112C15.1121 21.8881 15.1028 21.8603 15.0982 21.8325C15.0935 21.8093 15.0843 21.7816 15.0796 21.7538C15.0796 21.7399 15.0704 21.726 15.0657 21.7074C15.0565 21.6658 15.0518 21.6195 15.0426 21.5778C15.0333 21.5268 15.024 21.4805 15.0194 21.4342C15.0101 21.3694 15.0009 21.3091 14.9962 21.2443C14.9916 21.2026 14.987 21.1517 14.9823 21.1054C14.9777 21.0266 14.9684 20.9479 14.9684 20.8692C14.9592 20.7626 14.9592 20.6515 14.9592 20.545C14.9592 19.8317 15.0657 19.1787 15.2881 18.5998C15.4317 18.2246 15.6217 17.8726 15.8626 17.5484C16.4648 16.7426 17.2709 16.1405 18.2948 15.7376C19.1426 15.4041 20.0598 15.2188 21.0651 15.1633C21.2505 15.154 21.4311 15.1494 21.6257 15.1494H25.2578L26.2121 18.1829H20.3702C20.2174 18.1829 20.0923 18.2663 19.9487 18.308C19.4252 18.5025 18.9989 18.7758 18.6839 19.1324C18.3596 19.489 18.2021 19.9105 18.2021 20.3921C18.2021 20.846 18.3411 21.2119 18.6098 21.4944C18.8831 21.7816 19.2213 22.0085 19.629 22.1799C20.0367 22.342 20.4444 22.4809 20.8659 22.592L24.1691 23.5137C24.4424 23.5832 24.7297 23.6712 25.0354 23.7684C25.2439 23.8425 25.4663 23.9166 25.6933 24C26.2585 24.2038 26.8005 24.4909 27.3194 24.8614C27.8475 25.2273 28.2737 25.709 28.6119 26.3064C28.737 26.5288 28.8389 26.7789 28.9177 27.0428C29.052 27.5014 29.1169 28.0108 29.1169 28.5897C29.1169 29.5438 28.9177 30.3821 28.5193 31.1046Z" fill="url(#paint0_linear_293_9)"/>
</g>
<defs>
<linearGradient id="paint0_linear_293_9" x1="9.78413" y1="7.74793e-07" x2="41.3841" y2="53.3537" gradientUnits="userSpaceOnUse">
<stop stop-color="#FFBE0B"/>
<stop offset="0.464" stop-color="#FB5607"/>
<stop offset="0.914" stop-color="#FF006E"/>
</linearGradient>
<clipPath id="clip0_293_9">
<rect width="48" height="48" fill="white"/>
</clipPath>
</defs>
</svg>
